<svg width="20" height="20" viewBox="0 0 20 20" fill="none" xmlns="http://www.w3.org/2000/svg">
<path d="M14.5833 3.75C12.9583 3.75 11.2083 4.08333 9.99999 5C8.79166 4.08333 7.04166 3.75 5.41666 3.75C4.20833 3.75 2.92499 3.93333 1.84999 4.40833C1.24166 4.68333 0.833328 5.275 0.833328 5.95V15.35C0.833328 16.4333 1.84999 17.2333 2.89999 16.9667C3.71666 16.7583 4.58333 16.6667 5.41666 16.6667C6.71666 16.6667 8.1 16.8833 9.21666 17.4333C9.71666 17.6833 10.2833 17.6833 10.775 17.4333C11.8917 16.875 13.275 16.6667 14.575 16.6667C15.4083 16.6667 16.275 16.7583 17.0917 16.9667C18.1417 17.2417 19.1583 16.4417 19.1583 15.35V5.95C19.1583 5.275 18.75 4.68333 18.1417 4.40833C17.075 3.93333 15.7917 3.75 14.5833 3.75ZM17.5 14.3583C17.5 14.8833 17.0167 15.2667 16.5 15.175C15.875 15.0583 15.225 15.0083 14.5833 15.0083C13.1667 15.0083 11.125 15.55 9.99999 16.2583V6.66667C11.125 5.95833 13.1667 5.41667 14.5833 5.41667C15.35 5.41667 16.1083 5.49167 16.8333 5.65C17.2167 5.73333 17.5 6.075 17.5 6.46667V14.3583Z" fill="url(#paint0_linear_7_52)"/>
<path d="M11.65 9.17498C11.3833 9.17498 11.1417 9.00831 11.0583 8.74165C10.95 8.41665 11.1333 8.05831 11.4583 7.95831C12.7417 7.54165 14.4 7.40831 15.925 7.58331C16.2667 7.62498 16.5167 7.93331 16.475 8.27498C16.4333 8.61665 16.125 8.86665 15.7833 8.82498C14.4333 8.66665 12.9583 8.79165 11.8417 9.14998C11.775 9.15831 11.7083 9.17498 11.65 9.17498Z" fill="url(#paint1_linear_7_52)"/>
<path d="M11.65 11.3917C11.3833 11.3917 11.1417 11.225 11.0583 10.9583C10.95 10.6333 11.1333 10.275 11.4583 10.175C12.7333 9.75832 14.4 9.62499 15.925 9.79999C16.2667 9.84166 16.5167 10.15 16.475 10.4917C16.4333 10.8333 16.125 11.0833 15.7833 11.0417C14.4333 10.8833 12.9583 11.0083 11.8417 11.3667C11.775 11.3833 11.7083 11.3917 11.65 11.3917Z" fill="url(#paint2_linear_7_52)"/>
<path d="M11.65 13.6083C11.3833 13.6083 11.1417 13.4417 11.0583 13.175C10.95 12.85 11.1333 12.4917 11.4583 12.3917C12.7333 11.975 14.4 11.8417 15.925 12.0167C16.2667 12.0583 16.5167 12.3667 16.475 12.7083C16.4333 13.05 16.125 13.2917 15.7833 13.2583C14.4333 13.1 12.9583 13.225 11.8417 13.5833C11.775 13.6 11.7083 13.6083 11.65 13.6083Z" fill="url(#paint3_linear_7_52)"/>
<defs>
<linearGradient id="paint0_linear_7_52" x1="9.99583" y1="3.75" x2="9.99583" y2="17.6208" gradientUnits="userSpaceOnUse">
<stop stop-color="#49E54F"/>
<stop offset="1" stop-color="#21BF73"/>
</linearGradient>
<linearGradient id="paint1_linear_7_52" x1="13.7533" y1="7.50824" x2="13.7533" y2="9.17498" gradientUnits="userSpaceOnUse">
<stop stop-color="#49E54F"/>
<stop offset="1" stop-color="#21BF73"/>
</linearGradient>
<linearGradient id="paint2_linear_7_52" x1="13.7533" y1="9.72491" x2="13.7533" y2="11.3917" gradientUnits="userSpaceOnUse">
<stop stop-color="#49E54F"/>
<stop offset="1" stop-color="#21BF73"/>
</linearGradient>
<linearGradient id="paint3_linear_7_52" x1="13.7533" y1="11.9416" x2="13.7533" y2="13.6083" gradientUnits="userSpaceOnUse">
<stop stop-color="#49E54F"/>
<stop offset="1" stop-color="#21BF73"/>
</linearGradient>
</defs>
</svg>
