<svg width="40" height="40" viewBox="0 0 40 40" fill="none" xmlns="http://www.w3.org/2000/svg">
<path d="M6.25 30C5.88889 30 5.59028 29.8819 5.35417 29.6458C5.11806 29.4097 5 29.1111 5 28.75C5 28.3889 5.11806 28.0903 5.35417 27.8542C5.59028 27.6181 5.88889 27.5 6.25 27.5H33.75C34.1111 27.5 34.4097 27.6181 34.6458 27.8542C34.8819 28.0903 35 28.3889 35 28.75C35 29.1111 34.8819 29.4097 34.6458 29.6458C34.4097 29.8819 34.1111 30 33.75 30H6.25ZM6.25 21.25C5.88889 21.25 5.59028 21.1319 5.35417 20.8958C5.11806 20.6597 5 20.3611 5 20C5 19.6389 5.11806 19.3403 5.35417 19.1042C5.59028 18.8681 5.88889 18.75 6.25 18.75H33.75C34.1111 18.75 34.4097 18.8681 34.6458 19.1042C34.8819 19.3403 35 19.6389 35 20C35 20.3611 34.8819 20.6597 34.6458 20.8958C34.4097 21.1319 34.1111 21.25 33.75 21.25H6.25ZM6.25 12.5C5.88889 12.5 5.59028 12.3819 5.35417 12.1458C5.11806 11.9097 5 11.6111 5 11.25C5 10.8889 5.11806 10.5903 5.35417 10.3542C5.59028 10.1181 5.88889 10 6.25 10H33.75C34.1111 10 34.4097 10.1181 34.6458 10.3542C34.8819 10.5903 35 10.8889 35 11.25C35 11.6111 34.8819 11.9097 34.6458 12.1458C34.4097 12.3819 34.1111 12.5 33.75 12.5H6.25Z" fill="#002408"/>
</svg>
