<svg width="40" height="40" viewBox="0 0 40 40" fill="none" xmlns="http://www.w3.org/2000/svg">
<path d="M25.8333 1.66663H12.5C10.2 1.66663 8.33333 3.53329 8.33333 5.83329V34.1666C8.33333 36.4666 10.2 38.3333 12.5 38.3333H25.8333C28.1333 38.3333 30 36.4666 30 34.1666V5.83329C30 3.53329 28.1333 1.66663 25.8333 1.66663ZM19.1667 36.6666C17.7833 36.6666 16.6667 35.55 16.6667 34.1666C16.6667 32.7833 17.7833 31.6666 19.1667 31.6666C20.55 31.6666 21.6667 32.7833 21.6667 34.1666C21.6667 35.55 20.55 36.6666 19.1667 36.6666ZM26.6667 30H11.6667V6.66663H26.6667V30Z" fill="#49E54F"/>
</svg>
