<svg width="50" height="50" viewBox="0 0 50 50" fill="none" xmlns="http://www.w3.org/2000/svg">
<path fill-rule="evenodd" clip-rule="evenodd" d="M0 25C0 38.8071 11.1929 50 25 50C38.8071 50 50 38.8071 50 25C50 11.1929 38.8071 0 25 0C11.1929 0 0 11.1929 0 25ZM40.6897 24.0432C40.6865 32.2378 34.0203 38.9055 25.8241 38.9089H25.8179C23.3299 38.908 20.8852 38.2837 18.7139 37.0995L10.8333 39.1667L12.9423 31.4633C11.6414 29.2089 10.9569 26.6516 10.9579 24.0315C10.9612 15.8351 17.63 9.16667 25.8239 9.16667C29.8006 9.16839 33.5331 10.7166 36.3398 13.5265C39.1465 16.3363 40.6914 20.0711 40.6897 24.0432Z" fill="#49E54F"/>
<path fill-rule="evenodd" clip-rule="evenodd" d="M14.4026 35.635L19.0791 34.4082L19.5302 34.676C21.4273 35.8018 23.6019 36.3974 25.8191 36.3983H25.8241C32.6343 36.3983 38.177 30.8554 38.1798 24.0424C38.181 20.7408 36.8971 17.6366 34.5643 15.301C32.2315 12.9655 29.1292 11.6786 25.829 11.6775C19.0134 11.6775 13.4706 17.2199 13.4679 24.0324C13.467 26.3671 14.1202 28.6407 15.3571 30.6079L15.6508 31.0754L14.4026 35.635ZM32.8046 27.2438C33.0636 27.3691 33.2386 27.4535 33.3133 27.5782C33.4061 27.7331 33.4061 28.4769 33.0968 29.3447C32.7871 30.2123 31.3032 31.0042 30.5895 31.1107C29.9496 31.2064 29.1398 31.2463 28.25 30.9635C27.7104 30.7924 27.0186 30.5638 26.1324 30.1811C22.6502 28.6775 20.2969 25.3025 19.8522 24.6646C19.821 24.6199 19.7992 24.5886 19.7871 24.5725L19.7841 24.5684C19.5875 24.3061 18.2703 22.5487 18.2703 20.73C18.2703 19.0191 19.1108 18.1222 19.4977 17.7094C19.5242 17.6811 19.5485 17.6551 19.5704 17.6312C19.9108 17.2594 20.3133 17.1664 20.5609 17.1664C20.8085 17.1664 21.0563 17.1687 21.2728 17.1796C21.2995 17.1809 21.3273 17.1807 21.356 17.1806C21.5725 17.1793 21.8423 17.1777 22.1085 17.8172C22.2109 18.0633 22.3608 18.4281 22.5188 18.8128C22.8384 19.591 23.1917 20.4508 23.2537 20.5752C23.3467 20.7611 23.4085 20.978 23.2847 21.226C23.2661 21.2632 23.249 21.2983 23.2325 21.3318C23.1396 21.5217 23.0711 21.6613 22.9133 21.8456C22.8512 21.9181 22.7871 21.9962 22.7229 22.0743C22.5952 22.2299 22.4674 22.3855 22.3561 22.4963C22.1702 22.6816 21.9766 22.8826 22.1932 23.2545C22.4099 23.6263 23.1554 24.8426 24.2597 25.8276C25.4467 26.8863 26.4783 27.3338 27.0012 27.5607C27.1033 27.605 27.186 27.6408 27.2468 27.6712C27.618 27.8572 27.8348 27.8261 28.0515 27.5782C28.2681 27.3304 28.98 26.4936 29.2276 26.1218C29.4751 25.7501 29.7229 25.812 30.0633 25.9359C30.4039 26.06 32.23 26.9584 32.6015 27.1444C32.674 27.1807 32.7418 27.2134 32.8046 27.2438Z" fill="#49E54F"/>
</svg>
