<svg width="32" height="32" viewBox="0 0 32 32" fill="none" xmlns="http://www.w3.org/2000/svg">
<path d="M0 16C0 7.16344 7.16344 0 16 0C24.8366 0 32 7.16344 32 16C32 24.8366 24.8366 32 16 32C7.16344 32 0 24.8366 0 16Z" fill="#49E54F"/>
<path d="M7.5907 22.6292C6.49426 22.6292 5.45687 22.3762 4.47851 21.8701C3.50016 21.3472 2.70735 20.5966 2.10009 19.6182C1.49284 18.623 1.18921 17.4338 1.18921 16.0506C1.18921 14.6674 1.49284 13.4866 2.10009 12.5083C2.70735 11.5131 3.50016 10.7624 4.47851 10.2564C5.45687 9.73346 6.49426 9.472 7.5907 9.472C8.68713 9.472 9.72453 9.73346 10.7029 10.2564C11.6812 10.7624 12.474 11.5131 13.0813 12.5083C13.6886 13.4866 13.9922 14.6674 13.9922 16.0506C13.9922 17.4338 13.6886 18.623 13.0813 19.6182C12.474 20.5966 11.6812 21.3472 10.7029 21.8701C9.72453 22.3762 8.68713 22.6292 7.5907 22.6292ZM7.5907 19.6182C8.16422 19.6182 8.63653 19.4749 9.00763 19.1881C9.3956 18.9013 9.68236 18.4881 9.86791 17.9483C10.0703 17.4085 10.1715 16.7759 10.1715 16.0506C10.1715 15.3253 10.0703 14.6927 9.86791 14.1529C9.68236 13.6131 9.3956 13.1999 9.00763 12.9131C8.63653 12.6264 8.16422 12.483 7.5907 12.483C7.01718 12.483 6.53643 12.6264 6.14847 12.9131C5.77736 13.1999 5.49061 13.6131 5.28819 14.1529C5.10264 14.6927 5.00986 15.3253 5.00986 16.0506C5.00986 16.7759 5.10264 17.4085 5.28819 17.9483C5.49061 18.4881 5.77736 18.9013 6.14847 19.1881C6.53643 19.4749 7.01718 19.6182 7.5907 19.6182Z" fill="#101010"/>
<path d="M16.9933 22.3256V9.77563H20.0296L20.3079 11.4456H20.4091C20.9489 10.9058 21.5646 10.4419 22.2562 10.054C22.9646 9.66598 23.7912 9.472 24.7358 9.472C26.1527 9.472 27.1901 9.92744 27.848 10.8383C28.5058 11.7492 28.8348 12.9975 28.8348 14.5831V22.3256H25.1153V15.0638C25.1153 14.2204 24.9719 13.6047 24.6852 13.2167C24.4153 12.8288 23.943 12.6348 23.2683 12.6348C22.7622 12.6348 22.3152 12.7529 21.9272 12.989C21.5561 13.2083 21.1513 13.5288 20.7127 13.9505V22.3256H16.9933Z" fill="#101010"/>
</svg>
