<svg width="71" height="30" viewBox="0 0 71 30" fill="none" xmlns="http://www.w3.org/2000/svg">
<path d="M13.1853 23.6552L0 15.0345V11.0345L13.1853 2.41379V7.72414L4.70905 12.9655V13.1034L13.1853 18.3448V23.6552Z" fill="#002408"/>
<path d="M24.2721 24.8966C22.1643 24.8966 20.46 24.1034 19.1594 22.5172C17.8813 20.908 17.2422 18.7126 17.2422 15.931C17.2422 14.069 17.5785 12.4713 18.2513 11.1379C18.9464 9.8046 19.8434 8.78161 20.9421 8.06897C22.0409 7.33333 23.1846 6.96552 24.373 6.96552C25.2924 6.96552 26.0885 7.12644 26.7612 7.44828C27.4339 7.77011 28.0394 8.21839 28.5775 8.7931H28.7121L28.4766 6.13793V0.310345H33.4211V24.4828H29.3848L29.0148 22.7241H28.9139C28.3084 23.3448 27.5909 23.8621 26.7612 24.2759C25.9539 24.6897 25.1242 24.8966 24.2721 24.8966ZM25.5503 20.7586C26.1109 20.7586 26.6266 20.6437 27.0975 20.4138C27.5909 20.1609 28.0506 19.7471 28.4766 19.1724V12.2414C28.0281 11.8276 27.5685 11.5402 27.0975 11.3793C26.6491 11.1954 26.1782 11.1034 25.6848 11.1034C25.0794 11.1034 24.5188 11.2759 24.003 11.6207C23.4873 11.9655 23.0724 12.4943 22.7585 13.2069C22.467 13.8966 22.3212 14.7816 22.3212 15.8621C22.3212 17.5402 22.6015 18.7816 23.1621 19.5862C23.7227 20.3678 24.5188 20.7586 25.5503 20.7586Z" fill="#002408"/>
<path d="M37.3098 30L48.4097 0H53.186L42.0861 30H37.3098Z" fill="#002408"/>
<path d="M57.8147 23.6552V18.3448L66.2909 13.1034V12.9655L57.8147 7.72414V2.41379L71 11.0345V15.0345L57.8147 23.6552Z" fill="#002408"/>
</svg>
