<svg width="212" height="44" viewBox="0 0 212 44" fill="none" xmlns="http://www.w3.org/2000/svg">
<path d="M18.7625 35.1519L0 23.1301V17.5519L18.7625 5.53005V12.9355L6.70089 20.2448V20.4372L18.7625 27.7464V35.1519Z" fill="#002408"/>
<path d="M34.5387 36.8831C31.5393 36.8831 29.1142 35.777 27.2635 33.565C25.4447 31.3209 24.5353 28.2594 24.5353 24.3803C24.5353 21.7836 25.0139 19.5556 25.9712 17.6962C26.9603 15.8368 28.2367 14.4102 29.8002 13.4164C31.3638 12.3905 32.9911 11.8776 34.6823 11.8776C35.9906 11.8776 37.1234 12.102 38.0806 12.5508C39.0379 12.9996 39.8994 13.6248 40.6652 14.4262H40.8567L40.5217 10.7235V2.59672H47.5576V36.306H41.814L41.2875 33.8536H41.1439C40.2823 34.7191 39.2613 35.4404 38.0806 36.0175C36.9319 36.5945 35.7513 36.8831 34.5387 36.8831ZM36.3575 31.1126C37.1553 31.1126 37.8892 30.9523 38.5593 30.6317C39.2613 30.2791 39.9154 29.702 40.5217 28.9005V19.235C39.8835 18.6579 39.2293 18.2572 38.5593 18.0328C37.9211 17.7763 37.251 17.6481 36.549 17.6481C35.6875 17.6481 34.8897 17.8885 34.1558 18.3694C33.4219 18.8503 32.8316 19.5876 32.3849 20.5814C31.9701 21.5432 31.7626 22.7774 31.7626 24.2842C31.7626 26.6244 32.1615 28.3556 32.9592 29.4776C33.757 30.5676 34.8897 31.1126 36.3575 31.1126Z" fill="#002408"/>
<path d="M60.7492 36.8831C59.1538 36.8831 57.7657 36.5625 56.5851 35.9213C55.4364 35.2801 54.5429 34.4146 53.9047 33.3246C53.2666 32.2346 52.9475 31.0164 52.9475 29.6699C52.9475 27.0091 54.1441 24.9734 56.5372 23.5628C58.9623 22.1523 62.9828 21.2867 68.5988 20.9661C68.5031 20.2288 68.2638 19.6036 67.8809 19.0907C67.498 18.5778 66.9395 18.1931 66.2056 17.9366C65.5036 17.6481 64.6102 17.5038 63.5253 17.5038C62.7595 17.5038 61.9937 17.6 61.2278 17.7924C60.462 17.9526 59.6643 18.2091 58.8347 18.5617C58.0369 18.8823 57.1914 19.267 56.2979 19.7158L53.809 15.0995C54.8939 14.4583 56.0267 13.8973 57.2073 13.4164C58.4199 12.9355 59.6643 12.5668 60.9407 12.3104C62.2489 12.0219 63.5732 11.8776 64.9133 11.8776C67.147 11.8776 69.0615 12.2783 70.6569 13.0798C72.2524 13.8492 73.4809 15.0353 74.3424 16.6383C75.204 18.2091 75.6347 20.2127 75.6347 22.6492V36.306H69.8911L69.3646 33.6131H69.1732C67.9925 34.5107 66.6843 35.2801 65.2484 35.9213C63.8125 36.5625 62.3127 36.8831 60.7492 36.8831ZM62.9988 31.4011C64.0518 31.4011 65.041 31.1927 65.9663 30.776C66.8917 30.3271 67.7692 29.7822 68.5988 29.141V25.1978C66.2695 25.326 64.4506 25.5665 63.1424 25.9191C61.866 26.2718 60.9726 26.7206 60.462 27.2656C59.9515 27.8106 59.6962 28.4357 59.6962 29.141C59.6962 29.6219 59.8238 30.0386 60.0791 30.3913C60.3663 30.7439 60.7492 31.0004 61.2278 31.1607C61.7384 31.3209 62.3287 31.4011 62.9988 31.4011Z" fill="#002408"/>
<path d="M88.2041 36.306L79.2537 12.4546H86.3375L90.0708 23.7071C90.4537 24.8933 90.8207 26.0954 91.1717 27.3137C91.5227 28.5319 91.8737 29.7822 92.2247 31.0645H92.4161C92.7671 29.7822 93.1022 28.5319 93.4213 27.3137C93.7723 26.0954 94.1392 24.8933 94.5221 23.7071L98.2555 12.4546H105.004L96.2931 36.306H88.2041Z" fill="#002408"/>
<path d="M118.818 36.306V17.9847H109.245V12.4546H125.854V36.306H118.818ZM122.025 8.70383C120.685 8.70383 119.568 8.31913 118.674 7.54973C117.781 6.74827 117.334 5.70638 117.334 4.42404C117.334 3.10965 117.781 2.05173 118.674 1.25027C119.568 0.416758 120.685 0 122.025 0C123.397 0 124.514 0.416758 125.375 1.25027C126.269 2.05173 126.716 3.10965 126.716 4.42404C126.716 5.70638 126.269 6.74827 125.375 7.54973C124.514 8.31913 123.397 8.70383 122.025 8.70383Z" fill="#002408"/>
<path d="M147.422 36.8831C145.316 36.8831 143.226 36.5304 141.152 35.8251C139.078 35.0878 137.291 34.2222 135.791 33.2284L138.806 28.8044C140.242 29.7341 141.758 30.4393 143.353 30.9202C144.981 31.4011 146.656 31.6415 148.379 31.6415C149.687 31.6415 150.645 31.4492 151.251 31.0645C151.857 30.6477 152.16 30.1668 152.16 29.6219C152.16 29.2692 152.064 28.9807 151.873 28.7563C151.713 28.4998 151.41 28.2754 150.964 28.0831C150.549 27.8587 149.958 27.6503 149.193 27.4579C148.459 27.2656 147.501 27.0412 146.321 26.7847C143.098 26.0794 140.785 25.1177 139.381 23.8995C137.977 22.6812 137.275 21.1585 137.275 19.3311C137.275 17.0871 138.248 15.2918 140.194 13.9454C142.141 12.5668 144.805 11.8776 148.188 11.8776C150.325 11.8776 152.256 12.2302 153.979 12.9355C155.734 13.6087 157.234 14.3461 158.478 15.1475L155.319 19.3792C154.139 18.6419 152.878 18.0809 151.538 17.6962C150.198 17.3115 148.874 17.1191 147.565 17.1191C146.831 17.1191 146.225 17.1993 145.746 17.3596C145.268 17.4878 144.901 17.7122 144.646 18.0328C144.39 18.3213 144.263 18.6419 144.263 18.9945C144.263 19.6357 144.678 20.1166 145.507 20.4372C146.337 20.7257 147.757 21.0944 149.767 21.5432C152.192 22.0882 154.091 22.7133 155.463 23.4186C156.835 24.1239 157.776 24.9413 158.287 25.871C158.829 26.7687 159.1 27.8747 159.1 29.1891C159.1 30.6317 158.654 31.9301 157.76 33.0842C156.899 34.2383 155.59 35.1679 153.835 35.8732C152.112 36.5464 149.974 36.8831 147.422 36.8831Z" fill="#002408"/>
<path d="M164.06 44L179.854 2.16393H186.651L170.856 44H164.06Z" fill="#002408"/>
<path d="M193.238 35.1519V27.7464L205.299 20.4372V20.2448L193.238 12.9355V5.53005L212 17.5519V23.1301L193.238 35.1519Z" fill="#002408"/>
</svg>
