<svg width="144" height="30" viewBox="0 0 144 30" fill="none" xmlns="http://www.w3.org/2000/svg">
<path d="M12.7443 23.9672L0 15.7705V11.9672L12.7443 3.77049V8.81967L4.55154 13.8033V13.9344L12.7443 18.918V23.9672Z" fill="#002408"/>
<path d="M23.4603 25.1475C21.4229 25.1475 19.7757 24.3934 18.5186 22.8852C17.2832 21.3552 16.6655 19.2678 16.6655 16.623C16.6655 14.8525 16.9906 13.3333 17.6408 12.0656C18.3127 10.7978 19.1796 9.82514 20.2417 9.14754C21.3037 8.44809 22.4091 8.09836 23.5578 8.09836C24.4464 8.09836 25.2159 8.25137 25.8661 8.55738C26.5163 8.86339 27.1015 9.28962 27.6217 9.83607H27.7517L27.5241 7.31148V1.77049H32.3033V24.7541H28.4019L28.0443 23.082H27.9468C27.3616 23.6721 26.668 24.1639 25.8661 24.5574C25.0858 24.9508 24.2839 25.1475 23.4603 25.1475ZM24.6957 21.2131C25.2375 21.2131 25.736 21.1038 26.1912 20.8852C26.668 20.6448 27.1123 20.2514 27.5241 19.7049V13.1148C27.0907 12.7213 26.6463 12.4481 26.1912 12.2951C25.7577 12.1202 25.3026 12.0328 24.8257 12.0328C24.2405 12.0328 23.6987 12.1967 23.2002 12.5246C22.7017 12.8525 22.3007 13.3552 21.9973 14.0328C21.7155 14.6885 21.5746 15.5301 21.5746 16.5574C21.5746 18.153 21.8456 19.3333 22.3874 20.0984C22.9293 20.8415 23.6987 21.2131 24.6957 21.2131Z" fill="#002408"/>
<path d="M41.2636 25.1475C40.1799 25.1475 39.2371 24.929 38.4352 24.4918C37.6549 24.0546 37.048 23.4645 36.6145 22.7213C36.1811 21.9781 35.9643 21.1475 35.9643 20.2295C35.9643 18.4153 36.7771 17.0273 38.4026 16.0656C40.0499 15.1038 42.7808 14.5137 46.5954 14.2951C46.5304 13.7923 46.3678 13.3661 46.1078 13.0164C45.8477 12.6667 45.4684 12.4044 44.9699 12.2295C44.493 12.0328 43.8862 11.9344 43.1493 11.9344C42.6291 11.9344 42.1089 12 41.5887 12.1311C41.0685 12.2404 40.5267 12.4153 39.9632 12.6557C39.4213 12.8743 38.847 13.1366 38.2401 13.4426L36.5495 10.2951C37.2864 9.85792 38.0559 9.47541 38.8578 9.14754C39.6814 8.81967 40.5267 8.56831 41.3937 8.39344C42.2823 8.19672 43.1818 8.09836 44.0921 8.09836C45.6093 8.09836 46.9097 8.37158 47.9934 8.91803C49.0771 9.44262 49.9115 10.2514 50.4967 11.3443C51.0819 12.4153 51.3745 13.7814 51.3745 15.4426V24.7541H47.4732L47.1156 22.918H46.9856C46.1836 23.5301 45.295 24.0546 44.3196 24.4918C43.3443 24.929 42.3256 25.1475 41.2636 25.1475ZM42.7916 21.4098C43.5069 21.4098 44.1788 21.2678 44.8073 20.9836C45.4359 20.6776 46.0319 20.306 46.5954 19.8689V17.1803C45.0132 17.2678 43.7778 17.4317 42.8892 17.6721C42.0222 17.9126 41.4153 18.2186 41.0685 18.5902C40.7218 18.9617 40.5484 19.388 40.5484 19.8689C40.5484 20.1967 40.6351 20.4809 40.8085 20.7213C41.0035 20.9617 41.2636 21.1366 41.5887 21.2459C41.9355 21.3552 42.3365 21.4098 42.7916 21.4098Z" fill="#002408"/>
<path d="M59.9122 24.7541L53.8327 8.4918H58.6443L61.1802 16.1639C61.4403 16.9727 61.6895 17.7923 61.9279 18.623C62.1663 19.4536 62.4048 20.306 62.6432 21.1803H62.7732C63.0116 20.306 63.2392 19.4536 63.4559 18.623C63.6944 17.7923 63.9436 16.9727 64.2037 16.1639L66.7396 8.4918H71.3236L65.4066 24.7541H59.9122Z" fill="#002408"/>
<path d="M80.7066 24.7541V12.2623H74.2044V8.4918H85.4857V24.7541H80.7066ZM82.8848 5.93443C81.9745 5.93443 81.2159 5.67213 80.6091 5.14754C80.0022 4.60109 79.6988 3.89071 79.6988 3.01639C79.6988 2.12022 80.0022 1.39891 80.6091 0.85246C81.2159 0.284153 81.9745 0 82.8848 0C83.8168 0 84.5754 0.284153 85.1606 0.85246C85.7675 1.39891 86.0709 2.12022 86.0709 3.01639C86.0709 3.89071 85.7675 4.60109 85.1606 5.14754C84.5754 5.67213 83.8168 5.93443 82.8848 5.93443Z" fill="#002408"/>
<path d="M100.135 25.1475C98.705 25.1475 97.2854 24.9071 95.8766 24.4262C94.4677 23.9235 93.254 23.3333 92.2353 22.6557L94.2835 19.6393C95.2588 20.2732 96.2884 20.7541 97.3721 21.082C98.4774 21.4098 99.6153 21.5738 100.786 21.5738C101.674 21.5738 102.325 21.4426 102.736 21.1803C103.148 20.8962 103.354 20.5683 103.354 20.1967C103.354 19.9563 103.289 19.7596 103.159 19.6066C103.051 19.4317 102.845 19.2787 102.541 19.1475C102.26 18.9945 101.859 18.8525 101.338 18.7213C100.84 18.5902 100.19 18.4372 99.3877 18.2623C97.1987 17.7814 95.6273 17.1257 94.6736 16.2951C93.72 15.4645 93.2432 14.4262 93.2432 13.1803C93.2432 11.6503 93.9042 10.4262 95.2263 9.5082C96.5485 8.56831 98.3582 8.09836 100.656 8.09836C102.108 8.09836 103.419 8.3388 104.59 8.81967C105.782 9.27869 106.8 9.78142 107.646 10.3279L105.5 13.2131C104.698 12.7104 103.842 12.3279 102.931 12.0656C102.021 11.8033 101.122 11.6721 100.233 11.6721C99.7345 11.6721 99.3227 11.7268 98.9976 11.8361C98.6725 11.9235 98.4232 12.0765 98.2499 12.2951C98.0765 12.4918 97.9898 12.7104 97.9898 12.9508C97.9898 13.388 98.2715 13.7158 98.8351 13.9344C99.3986 14.1311 100.363 14.3825 101.729 14.6885C103.376 15.0601 104.665 15.4863 105.597 15.9672C106.529 16.4481 107.169 17.0055 107.516 17.6393C107.884 18.2514 108.068 19.0055 108.068 19.9016C108.068 20.8852 107.765 21.7705 107.158 22.5574C106.573 23.3443 105.684 23.9781 104.492 24.459C103.322 24.918 101.869 25.1475 100.135 25.1475Z" fill="#002408"/>
<path d="M111.437 30L122.165 1.47541H126.782L116.053 30H111.437Z" fill="#002408"/>
<path d="M131.256 23.9672V18.918L139.448 13.9344V13.8033L131.256 8.81967V3.77049L144 11.9672V15.7705L131.256 23.9672Z" fill="#002408"/>
</svg>
